<svg xmlns="http://www.w3.org/2000/svg" width="16" height="15.969" viewBox="0 0 16 15.969">
  <metadata><?xpacket begin="﻿" id="W5M0MpCehiHzreSzNTczkc9d"?>
<x:xmpmeta xmlns:x="adobe:ns:meta/" x:xmptk="Adobe XMP Core 5.6-c138 79.159824, 2016/09/14-01:09:01        ">
   <rdf:RDF xmlns:rdf="http://www.w3.org/1999/02/22-rdf-syntax-ns#">
      <rdf:Description rdf:about=""/>
   </rdf:RDF>
</x:xmpmeta>
                                                                                                    
                                                                                                    
                                                                                                    
                                                                                                    
                                                                                                    
                                                                                                    
                                                                                                    
                                                                                                    
                                                                                                    
                                                                                                    
                                                                                                    
                                                                                                    
                                                                                                    
                                                                                                    
                                                                                                    
                                                                                                    
                                                                                                    
                                                                                                    
                                                                                                    
                                                                                                    
                           
<?xpacket end="w"?></metadata>
<defs>
    <style>
      .cls-1 {
        fill: #4d9471;
        fill-rule: evenodd;
      }
    </style>
  </defs>
  <path id="phone_1" data-name="phone 1" class="cls-1" d="M1212.64,36.661l-2.47-2.478a1.291,1.291,0,0,0-1.82.035l-1.24,1.248c-0.08-.044-0.16-0.089-0.25-0.138a11.7,11.7,0,0,1-5.16-5.177c-0.05-.084-0.09-0.164-0.13-0.241l0.83-.836,0.41-.413a1.294,1.294,0,0,0,.04-1.821l-2.48-2.478a1.277,1.277,0,0,0-1.81.034l-0.7.7,0.02,0.019a3.981,3.981,0,0,0-.57,1.015,4.048,4.048,0,0,0-.26,1.029c-0.32,2.712.91,5.19,4.27,8.553,4.63,4.648,8.37,4.3,8.53,4.28a4.159,4.159,0,0,0,1.03-.259,4.209,4.209,0,0,0,1.01-.573l0.01,0.014,0.71-.693A1.3,1.3,0,0,0,1212.64,36.661Z" transform="translate(-1197 -24.031)"/>
</svg>
