<svg xmlns="http://www.w3.org/2000/svg" width="30.312" height="30.375" viewBox="0 0 30.312 30.375">
  <metadata><?xpacket begin="﻿" id="W5M0MpCehiHzreSzNTczkc9d"?>
<x:xmpmeta xmlns:x="adobe:ns:meta/" x:xmptk="Adobe XMP Core 5.6-c138 79.159824, 2016/09/14-01:09:01        ">
   <rdf:RDF xmlns:rdf="http://www.w3.org/1999/02/22-rdf-syntax-ns#">
      <rdf:Description rdf:about=""/>
   </rdf:RDF>
</x:xmpmeta>
                                                                                                    
                                                                                                    
                                                                                                    
                                                                                                    
                                                                                                    
                                                                                                    
                                                                                                    
                                                                                                    
                                                                                                    
                                                                                                    
                                                                                                    
                                                                                                    
                                                                                                    
                                                                                                    
                                                                                                    
                                                                                                    
                                                                                                    
                                                                                                    
                                                                                                    
                                                                                                    
                           
<?xpacket end="w"?></metadata>
<defs>
    <style>
      .cls-1 {
        fill: #fff;
        fill-rule: evenodd;
      }
    </style>
  </defs>
  <path id="phone_1" data-name="phone 1" class="cls-1" d="M178.49,771.827l-4.686-4.7a2.441,2.441,0,0,0-3.445.066L168,769.559c-0.149-.082-0.3-0.169-0.466-0.26a22.151,22.151,0,0,1-9.792-9.821c-0.088-.16-0.172-0.312-0.254-0.457l1.584-1.586,0.778-.783a2.45,2.45,0,0,0,.063-3.454l-4.685-4.7a2.435,2.435,0,0,0-3.445.065l-1.32,1.331,0.036,0.036a7.667,7.667,0,0,0-1.088,1.925,7.972,7.972,0,0,0-.484,1.952c-0.619,5.144,1.725,9.845,8.086,16.223,8.792,8.817,15.878,8.15,16.184,8.118a7.878,7.878,0,0,0,1.952-.492,7.612,7.612,0,0,0,1.913-1.086l0.028,0.026,1.338-1.314A2.457,2.457,0,0,0,178.49,771.827Z" transform="translate(-148.844 -747.813)"/>
</svg>
