<svg xmlns="http://www.w3.org/2000/svg" width="20" height="24" viewBox="0 0 20 24">
  <metadata><?xpacket begin="﻿" id="W5M0MpCehiHzreSzNTczkc9d"?>
<x:xmpmeta xmlns:x="adobe:ns:meta/" x:xmptk="Adobe XMP Core 5.6-c138 79.159824, 2016/09/14-01:09:01        ">
   <rdf:RDF xmlns:rdf="http://www.w3.org/1999/02/22-rdf-syntax-ns#">
      <rdf:Description rdf:about=""/>
   </rdf:RDF>
</x:xmpmeta>
                                                                                                    
                                                                                                    
                                                                                                    
                                                                                                    
                                                                                                    
                                                                                                    
                                                                                                    
                                                                                                    
                                                                                                    
                                                                                                    
                                                                                                    
                                                                                                    
                                                                                                    
                                                                                                    
                                                                                                    
                                                                                                    
                                                                                                    
                                                                                                    
                                                                                                    
                                                                                                    
                           
<?xpacket end="w"?></metadata>
<defs>
    <style>
      .cls-1 {
        fill: #d33a3d;
        fill-rule: evenodd;
      }
    </style>
  </defs>
  <path id="trash_1" data-name="trash 1" class="cls-1" d="M1520.01,401.952v11.7a3.34,3.34,0,0,1-3.34,3.33h-9.33a3.331,3.331,0,0,1-3.33-3.33v-11.7a2.5,2.5,0,0,1,.48-4.946h3.52v-0.5a3.5,3.5,0,0,1,3.5-3.5h1a3.5,3.5,0,0,1,3.5,3.5v0.5h3.51A2.5,2.5,0,0,1,1520.01,401.952Zm-6-5.445a1.505,1.505,0,0,0-1.5-1.5h-1a1.5,1.5,0,0,0-1.5,1.5v0.5h4v-0.5Zm4,5.494h-12v11.654a1.329,1.329,0,0,0,1.33,1.332h9.33a1.337,1.337,0,0,0,1.34-1.332V402Zm-3.5,11.487a0.994,0.994,0,0,1-1-1V404.5a1,1,0,0,1,2,0v7.992A1,1,0,0,1,1514.51,413.488Zm-5,0a0.994,0.994,0,0,1-1-1V404.5a1,1,0,0,1,2,0v7.992A1,1,0,0,1,1509.51,413.488Z" transform="translate(-1502 -393)"/>
</svg>
