<svg xmlns="http://www.w3.org/2000/svg" width="24" height="24" viewBox="0 0 24 24">
  <metadata><?xpacket begin="﻿" id="W5M0MpCehiHzreSzNTczkc9d"?>
<x:xmpmeta xmlns:x="adobe:ns:meta/" x:xmptk="Adobe XMP Core 5.6-c138 79.159824, 2016/09/14-01:09:01        ">
   <rdf:RDF xmlns:rdf="http://www.w3.org/1999/02/22-rdf-syntax-ns#">
      <rdf:Description rdf:about=""/>
   </rdf:RDF>
</x:xmpmeta>
                                                                                                    
                                                                                                    
                                                                                                    
                                                                                                    
                                                                                                    
                                                                                                    
                                                                                                    
                                                                                                    
                                                                                                    
                                                                                                    
                                                                                                    
                                                                                                    
                                                                                                    
                                                                                                    
                                                                                                    
                                                                                                    
                                                                                                    
                                                                                                    
                                                                                                    
                                                                                                    
                           
<?xpacket end="w"?></metadata>
<defs>
    <style>
      .cls-1 {
        fill: #ededed;
        fill-rule: evenodd;
      }
    </style>
  </defs>
  <path id="Фигура_319_1" data-name="Фигура 319 1" class="cls-1" d="M778.467,596.857l-4.947-4.948a10.137,10.137,0,0,0,.988-9.7A9.943,9.943,0,0,0,769.1,576.8a10.115,10.115,0,0,0-7.89,0,9.934,9.934,0,0,0-5.409,5.409,10.115,10.115,0,0,0,0,7.89,9.943,9.943,0,0,0,5.409,5.409,9.974,9.974,0,0,0,3.945.8,9.872,9.872,0,0,0,5.755-1.79l4.947,4.933a1.715,1.715,0,0,0,1.3.549A1.846,1.846,0,0,0,778.467,596.857Zm-8.748-6.138a6.441,6.441,0,1,1,1.9-4.565A6.219,6.219,0,0,1,769.719,590.719Z" transform="translate(-755 -576)"/>
</svg>
